<svg version="1.2" xmlns="http://www.w3.org/2000/svg" viewBox="0 0 1200 1200" width="1200" height="1200"><style>.a{fill:#244357}.b{fill:#db9632}</style><path class="a" d="m246.1 838.7l-3.2 6.2q-0.6 1-1.2 1.5-0.7 0.5-1.8 0.5-1.1 0-2.7-1.2-1.5-1.1-3.8-2.4-2.3-1.4-5.6-2.6-3.2-1.1-7.8-1.1-4.4 0-7.7 1.2-3.4 1.1-5.7 3.1-2.2 2-3.3 4.8-1.2 2.7-1.2 5.8 0 4.1 2 6.7 2 2.7 5.2 4.5 3.3 1.9 7.4 3.3 4.2 1.4 8.4 2.9 4.4 1.4 8.5 3.3 4.2 1.8 7.4 4.6 3.3 2.9 5.2 6.9 2 4.1 2 10.1 0 6.3-2.1 11.9-2.2 5.5-6.3 9.6-4.1 4.1-10.2 6.4-5.9 2.4-13.6 2.4-9.3 0-17-3.4-7.7-3.4-13.1-9.2l3.7-6.1q0.6-0.8 1.3-1.3 0.8-0.5 1.8-0.5 1.4 0 3.2 1.6 1.8 1.4 4.5 3.2 2.7 1.9 6.6 3.4 3.9 1.5 9.4 1.5 4.7 0 8.3-1.3 3.6-1.3 6.1-3.6 2.5-2.3 3.9-5.5 1.3-3.3 1.3-7.2 0-4.4-2-7.1-1.9-2.8-5.2-4.7-3.2-1.9-7.3-3.2-4.1-1.3-8.5-2.7-4.3-1.4-8.5-3.2-4-1.8-7.3-4.7-3.2-2.9-5.2-7.2-1.9-4.3-1.9-10.7 0-5.1 1.9-9.9 2-4.7 5.8-8.4 3.7-3.7 9.2-5.9 5.6-2.2 12.8-2.2 8 0 14.7 2.5 6.6 2.6 11.6 7.4zm79.2-8.9l38.5 96.2h-10.1q-1.7 0-2.8-0.9-1.1-0.8-1.6-2.2l-9-23.2h-43.1l-9 23.2q-0.5 1.2-1.6 2.2-1.2 0.9-2.9 0.9h-10l38.4-96.2zm-9.4 21.5l-15.1 39h35.9l-15.1-39.1q-1.5-3.6-2.9-9.1-0.8 2.8-1.5 5.1-0.7 2.3-1.3 4.1zm95-21.5v42.2h4.9q2.6 0 4.1-0.6 1.5-0.7 2.9-2.2l32-36.3q1.4-1.6 2.8-2.3 1.4-0.8 3.5-0.8h11.1l-36.6 41.4q-1.4 1.6-2.7 2.7-1.2 1-2.6 1.7 1.9 0.6 3.3 1.8 1.4 1.2 2.9 3l38.3 45.6h-11.3q-1.3 0-2.2-0.2-0.8-0.2-1.5-0.5-0.6-0.4-1.1-0.9-0.6-0.5-1.1-1.2l-33.2-38.1q-0.8-0.8-1.4-1.4-0.6-0.6-1.5-1-0.8-0.4-2-0.5-1-0.2-2.6-0.2h-6v44h-12.9v-96.2zm134.1 85.9q6 0 10.7-2 4.6-2.1 7.9-5.7 3.3-3.6 4.9-8.6 1.8-5.1 1.8-11.1v-58.5h12.9v58.5q0 8.3-2.7 15.4-2.6 7.1-7.5 12.4-4.9 5.1-12 8.1-7.2 2.9-16 2.9-8.9 0-16-2.9-7.1-3-12.1-8.1-4.9-5.3-7.6-12.4-2.6-7.1-2.6-15.4v-58.5h12.9v58.4q0 6.1 1.7 11.1 1.7 5 5 8.7 3.2 3.6 7.9 5.7 4.8 2 10.8 2zm104.8-29.8h-9.9v40.1h-13v-96.2h27.2q9.1 0 15.8 1.9 6.6 1.8 10.9 5.3 4.4 3.5 6.5 8.5 2.1 4.9 2.1 11 0 5.1-1.7 9.5-1.6 4.4-4.7 8-3 3.5-7.4 6-4.4 2.5-9.9 3.7 2.4 1.4 4.3 4.1l28 38.2h-11.5q-3.6 0-5.3-2.8l-24.9-34.3q-1.2-1.6-2.5-2.3-1.4-0.7-4-0.7zm-9.9-45.8v36.3h13.6q5.7 0 10-1.3 4.4-1.4 7.3-3.9 2.9-2.6 4.4-6.1 1.5-3.4 1.5-7.7 0-8.6-5.7-12.9-5.7-4.4-16.9-4.4zm133.4-10.3l38.4 96.2h-10q-1.8 0-2.8-0.9-1.1-0.8-1.7-2.2l-8.9-23.2h-43.2l-9 23.2q-0.4 1.2-1.6 2.2-1.1 0.9-2.8 0.9h-10.1l38.5-96.2zm-9.5 21.5l-15.1 39h35.9l-15.1-39.1q-1.5-3.6-2.9-9.1-0.7 2.8-1.4 5.1-0.7 2.3-1.4 4.1zm113.8 74.7h-34v-96.2h30.7q8.8 0 15.2 1.8 6.5 1.7 10.5 5 4.2 3.2 6.2 7.9 2 4.6 2 10.4 0 3.6-1.2 6.9-1.1 3.3-3.3 6.1-2.2 2.8-5.7 5-3.3 2.2-7.9 3.6 10.5 2.1 15.9 7.6 5.4 5.5 5.4 14.5 0 6.1-2.3 11.2-2.2 5-6.6 8.6-4.3 3.6-10.6 5.7-6.2 1.9-14.3 1.9zm-0.2-43.8h-20.8v33.5h20.8q5.6 0 9.6-1.3 4-1.3 6.5-3.6 2.7-2.3 3.9-5.5 1.2-3.2 1.2-7 0-7.5-5.3-11.8-5.3-4.3-15.9-4.3zm-20.8-42.1v32.8h17.2q5.5 0 9.5-1.2 4.1-1.2 6.7-3.3 2.7-2.2 3.9-5.2 1.3-3.1 1.3-6.7 0-8.5-5.1-12.4-5.1-4-15.8-4zm134.6-10.3l38.5 96.2h-10.1q-1.7 0-2.8-0.9-1.1-0.8-1.6-2.2l-9-23.2h-43.2l-9 23.2q-0.4 1.2-1.6 2.2-1.1 0.9-2.8 0.9h-10l38.4-96.2zm-9.5 21.5l-15.1 39h35.9l-15.1-39.1q-1.4-3.6-2.8-9.1-0.8 2.8-1.5 5.1-0.7 2.3-1.4 4.1zm-516.1 103.5v85.3h41.6v10.9h-54.7v-96.2zm116.7 0l38.4 96.2h-10q-1.8 0-2.8-0.9-1.1-0.8-1.7-2.2l-8.9-23.2h-43.2l-9 23.2q-0.5 1.2-1.6 2.2-1.1 0.9-2.8 0.9h-10.1l38.5-96.2zm-9.5 21.5l-15.1 39h35.9l-15.1-39.1q-1.5-3.6-2.9-9.1-0.7 2.8-1.5 5.1-0.6 2.3-1.3 4.1zm93.1 74.7l-30-96.2h10.8q1.7 0 2.9 0.9 1.1 0.9 1.5 2.2l19.9 66.9q0.5 1.8 0.9 3.9 0.5 2 0.9 4.3 0.4-2.3 0.9-4.3 0.5-2.2 1.1-3.9l22.6-66.9q0.4-1.1 1.5-2 1.3-1.1 2.9-1.1h3.8q1.7 0 2.8 0.9 1.1 0.9 1.6 2.2l22.5 66.9q1.2 3.5 2.1 7.9 0.4-2.2 0.8-4.2 0.3-2 0.9-3.7l19.9-66.9q0.3-1.2 1.5-2.1 1.2-1 2.8-1h10.2l-30 96.2h-11.7l-24.4-73.3q-0.7-2.1-1.3-4.9-0.3 1.4-0.7 2.6-0.2 1.3-0.6 2.3l-24.5 73.3z"/><path class="a" d="m774.7 445.8l-145.5-146.1v293.7c39-39.5 145.5-147.6 145.5-147.6z"/><path class="b" d="m810.2 416.5l64.9-64.9c-49.6-49.5-64.9-64.2-64.9-64.2z"/><path class="a" d="m403.9 412.4l180.2 179.6 0.7-127.7-180.9-181z"/><path class="b" d="m340.3 345.8l63.6 66.6v-129.1z"/><path class="a" d="m629.9 169.6l-0.7 64.5 181 182.4v-129.1l-181-182.3z"/><path class="a" d="m584.1 104.4c0 0-32.7 33-73.2 73.3l-73.7 73.2 146.9 147.1z"/><path class="b" d="m243.7 444.5l341.1 341.4v-131.1c-214-212.7-275.6-274.9-275.8-275-0.2-0.1-65.3 64.7-65.3 64.7z"/><path class="b" d="m629.2 656.9v129.7l340.8-341.4-64.2-64.9c0 0-276.6 276.6-276.6 276.6z"/></svg>